<svg width="387" height="365" viewBox="0 0 387 365" fill="none" xmlns="http://www.w3.org/2000/svg">
<path fill-rule="evenodd" clip-rule="evenodd" d="M165.767 3.57058C166.089 3.36512 166.353 3.40385 166.531 3.65283L166.536 3.66134C166.693 3.88754 166.782 4.28055 166.782 4.81631C166.782 4.93798 166.788 5.06091 166.799 5.18369L166.799 5.1861C166.821 5.41311 166.861 5.63957 166.916 5.85658C167.087 6.52584 167.402 7.10531 167.76 7.33427C168.299 7.67788 168.518 8.55537 168.248 9.28331C167.976 10.0122 168.155 10.6076 168.642 10.6076C169.131 10.6076 169.53 11.2863 169.53 12.1146C169.53 12.2164 169.543 12.3322 169.566 12.4594C169.734 13.3683 170.473 14.8606 171.352 16.0155C172.927 18.0848 173.097 21.1165 171.868 23.467L171.866 23.4717C171.709 23.7711 171.529 24.0594 171.327 24.3333C171.014 24.7567 170.42 28.9213 169.883 34.2427L169.883 34.2438C169.76 35.465 169.64 36.7471 169.527 38.059C169.374 37.9496 169.133 37.8968 168.817 37.8924L168.802 37.8922C168.75 37.8918 168.697 37.8926 168.642 37.8946C168.489 37.9003 168.321 37.9155 168.14 37.9395C167.277 38.0537 166.117 38.3674 164.807 38.8005C161.252 39.9758 156.595 42.0309 153.78 43.3702C152.29 44.5518 150.278 46.0976 148.132 47.6708L148.13 47.6721C147.622 48.0439 147.108 48.4173 146.59 48.7878L146.565 48.8054C143.307 51.1373 139.955 53.3506 137.781 54.3353L137.709 54.3677C136.989 54.6887 136.404 54.8702 136 54.8702C134.369 54.8702 130.869 58.3426 127.636 62.0497L127.621 62.0667C126.046 63.8733 124.535 65.7345 123.336 67.2757C123.041 67.6551 122.765 68.0151 122.511 68.3501C122.203 68.3501 121.882 68.4179 121.558 68.5436C121.516 68.5597 121.474 68.5768 121.433 68.5947L121.417 68.6017C121.318 68.6445 121.22 68.6925 121.122 68.7454L121.117 68.7478C120.991 68.8161 120.864 68.8925 120.739 68.9763C120.346 69.2378 119.961 69.572 119.599 69.9615L119.598 69.963C119.198 70.3941 118.827 70.8927 118.51 71.4352C118.46 71.5193 118.412 71.6045 118.366 71.6906C118.108 72.1674 117.891 72.6738 117.731 73.1948C117.584 73.6722 117.139 74.2161 116.387 74.8323C116.598 76.6766 116.122 78.62 114.961 80.1407C114.541 80.6907 113.657 87.2157 112.996 94.6407C111.637 109.904 108.814 122.162 105.55 126.972C102.28 131.791 101 136.241 101 142.79C101 147.324 100.662 148.641 99.5 148.641C98.452 148.641 98 149.697 98 152.141C98 154.066 97.637 155.641 97.192 155.641C96.748 155.641 95.551 157.554 94.531 159.891C93.512 162.228 92.188 164.465 91.589 164.86C90.813 165.373 90.848 166.141 91.708 167.529C92.709 169.145 92.569 169.919 90.893 172.05C88.831 174.671 89.064 176.641 91.437 176.641C92.162 176.641 93.315 177.316 94 178.141C94.774 179.073 94.846 179.641 94.19 179.641C93.61 179.641 92.852 180.531 92.507 181.619C92.098 182.909 91.119 183.517 89.69 183.369C88.309 183.225 87.5 183.695 87.5 184.641C87.5 185.466 86.933 186.74 86.241 187.472C85.548 188.203 85.237 189.216 85.55 189.722C85.862 190.227 85.676 190.641 85.135 190.641C84.595 190.641 84.231 192.698 84.326 195.211C84.457 198.647 84.065 200.025 82.75 200.761C81.734 201.329 81 202.913 81 204.536C81 206.073 80.1 208.146 79 209.141C76.071 211.792 76.528 213.359 80.877 215.578C84.755 217.556 87.756 221.529 84.4 220.241C83.257 219.803 82.942 220.047 83.334 221.069C83.721 222.078 83.072 222.613 81.195 222.83C78.769 223.11 78.5 223.541 78.5 227.141C78.5 230.528 78.155 231.19 76.25 231.461C74.187 231.754 72.941 233.641 74.81 233.641C76.295 233.641 75.381 248.556 73.783 250.414C70.912 253.751 67.122 262.362 64.658 271.141C64.041 273.341 62.965 275.501 62.268 275.941C61.571 276.381 61 277.74 61 278.963C61 281.838 55.359 288.716 53.565 288.028C51.862 287.374 50.567 289.255 52.078 290.189C52.795 290.632 52.181 291.862 50.344 293.66C47.033 296.901 45 299.341 45 300.074C45 300.358 46.314 300.328 47.92 300.007L50.839 299.423L49.605 303.013C48.926 304.988 48.062 306.912 47.685 307.289C46.235 308.739 47.106 310.629 49.5 311.23C52.65 312.021 52.64 313.114 49.445 317.302C48.039 319.145 47.147 321.069 47.461 321.578C47.775 322.087 47.575 322.785 47.016 323.131C46.457 323.476 45.984 324.745 45.965 325.95C45.919 328.737 43.877 332.141 42.25 332.141C41.563 332.141 41.028 332.535 41.063 333.017C41.098 333.499 40.085 334.41 38.813 335.041C37.379 335.751 36.376 337.267 36.173 339.027C35.969 340.794 34.176 343.488 31.423 346.164C28.99 348.528 27 350.953 27 351.552C27 352.151 26.55 352.641 26 352.641C25.45 352.641 25 353.348 25 354.212C25 356.065 22.647 358.641 20.955 358.641C20.302 358.641 17.571 360.254 14.885 362.225C11.44 364.755 9.878 365.417 9.582 364.475C8.512 361.075 8.385 357.679 9.315 357.369C9.94 357.161 9.682 355.71 8.654 353.65C7.514 351.364 7.297 349.944 7.985 349.256C8.543 348.698 9 347.431 9 346.441C9 345.451 9.45 344.641 10 344.641C11.427 344.641 11.235 342.939 9.639 341.449C8.503 340.387 8.785 339.547 11.354 336.35C13.95 333.12 14.397 331.766 14.219 327.674C14.103 325.008 14.859 319.972 15.899 316.484C16.939 312.995 18.077 308.88 18.427 307.339C19.024 304.716 18.926 304.61 16.904 305.692C14.772 306.833 14.753 306.772 15.46 300.995C16.652 291.252 18.966 282.465 22.005 276.141C23.591 272.841 25.86 265.218 27.049 259.201C28.237 253.185 30.738 244.786 32.605 240.538C36.402 231.903 40.106 218.653 42.501 205.141C46.442 182.902 48.346 174.702 50.978 168.641C54.518 160.487 58.413 142.797 57.541 138.829C57.015 136.431 57.358 135.537 59.392 134.013C62.435 131.732 64.015 126.641 61.68 126.641C59.749 126.641 57.336 129.008 56.463 131.759C56.012 133.179 52.978 135.156 47.147 137.828C40.241 140.993 36.989 143.282 30.995 149.198L23.491 156.606L17.271 154.723C12.993 153.428 9.328 151.367 5.526 148.119L0 143.398V137.021C0 130.966 0.197003 130.441 3.883 126.642C6.019 124.442 8.606 122.638 9.633 122.635C10.66 122.631 12.267 121.281 13.203 119.635C14.181 117.917 15.737 116.641 16.856 116.641C18.124 116.641 19.171 115.588 19.856 113.625C20.434 111.967 21.453 110.729 22.121 110.875C22.788 111.022 23.775 109.678 24.312 107.891C24.85 106.104 25.959 104.641 26.777 104.641C27.595 104.641 29.667 103.169 31.382 101.369C35.841 96.69 56.9286 79.8595 66.2732 73.3072C66.6457 71.5628 67.5196 70.5213 69.5576 68.3511C70.0545 67.8223 70.578 67.3177 71.098 66.8591L71.1007 66.8567C72.6278 65.5102 74.1241 64.5602 74.8257 64.5581C75.7667 64.5543 77.239 63.2764 78.0965 61.7183C78.2082 61.5155 78.3282 61.3193 78.4545 61.1311L78.4602 61.1227C79.3469 59.8057 80.5479 58.8841 81.4434 58.8841C82.6051 58.8841 83.5644 57.8874 84.192 56.0292C84.294 55.7268 84.411 55.4392 84.5379 55.1729C85.0694 54.0568 85.7731 53.3145 86.2672 53.426C86.8783 53.5652 87.7826 52.293 88.2746 50.6014C88.7675 48.9098 89.7835 47.525 90.533 47.525C91.0224 47.525 92.0018 46.9307 93.0601 46.0438C93.1915 45.9338 93.324 45.8192 93.457 45.7007L93.4584 45.6994C93.8943 45.311 94.3347 44.8803 94.7521 44.4277C95.1283 44.0198 95.6337 43.5144 96.248 42.9281C96.2909 42.8871 96.3344 42.8457 96.3783 42.804C96.4098 42.7742 96.4414 42.7441 96.4734 42.7139L96.5086 42.6806C96.5943 42.5997 96.6818 42.5174 96.7711 42.4338L96.7777 42.4276C96.8689 42.3422 96.962 42.2554 97.057 42.1673L97.102 42.1256C97.1456 42.0851 97.1896 42.0444 97.2339 42.0034C97.2852 41.956 97.3371 41.9082 97.3894 41.8601C97.5115 41.7478 97.6362 41.6334 97.7636 41.5172C98.1016 41.2088 98.458 40.887 98.8312 40.553L98.8328 40.5516C101.173 38.4569 104.17 35.8875 107.389 33.1992C107.567 33.0502 107.746 32.9009 107.926 32.7512C111.025 30.1696 114.303 27.4973 117.381 25.0452C119.186 23.6079 120.921 22.2462 122.511 21.0229C125.86 18.4454 128.564 16.4817 129.904 15.7173C130.363 15.4551 130.809 15.1929 131.23 14.9369C133.236 13.7195 134.713 12.6414 134.714 12.3645C134.714 12.3195 134.751 12.2346 134.821 12.1146C135.006 11.797 135.423 11.2336 136 10.5132C136.39 10.0268 136.852 9.46873 137.366 8.8664C137.948 8.18295 138.597 7.44249 139.279 6.68489C139.476 6.46647 139.664 6.25792 139.845 6.05905C140.268 5.59252 140.647 5.1792 140.987 4.81631C141.345 4.43525 141.658 4.10981 141.934 3.83679L141.934 3.83606C142.053 3.71846 142.165 3.6106 142.269 3.51222C142.414 3.37616 142.546 3.25823 142.667 3.15773L142.672 3.15382C143.653 2.33668 143.852 2.68245 143.86 3.82238L143.862 4.03351L143.862 4.04063L143.877 6.02889L147.137 3.94638C147.217 3.89549 147.296 3.84584 147.374 3.79742L147.376 3.79608C148.353 3.19164 149.213 2.7789 150.066 2.53266L150.088 2.52653C151.241 2.19702 152.383 2.17208 153.78 2.38922C156.04 2.73946 158.224 2.36272 160.368 1.25331C160.563 1.15228 160.754 1.05741 160.939 0.968701L160.94 0.967896C161.959 0.47978 162.826 0.177929 163.521 0.0586179L163.524 0.058175C165.197 -0.22784 165.882 0.543128 165.337 2.31918C165.292 2.464 165.255 2.59774 165.224 2.72038C165.101 3.21595 165.093 3.53102 165.198 3.66279L165.205 3.6708C165.281 3.75603 165.411 3.75524 165.595 3.66803L165.612 3.6597C165.66 3.63577 165.712 3.60607 165.767 3.57058ZM58.919 270.891C58.16 273.227 56.973 285.259 57.662 283.641C58.013 282.816 58.653 281.908 59.085 281.622C60.443 280.724 61.402 270.641 60.129 270.641C59.508 270.641 58.963 270.754 58.919 270.891Z" fill="#FE1C1E"/>
<path fill-rule="evenodd" clip-rule="evenodd" d="M328.048 30.553C326.306 31.002 322.556 32.684 319.715 34.289C316.11 36.3253 308.62 41.5679 302.961 45.8201C302.272 46.221 302.132 45.7657 302.544 44.4663C303.432 41.6673 301.33 41.2313 297.121 43.3403C294.781 44.5123 292.397 44.9103 289.93 44.5403C287.178 44.1263 285.335 44.5453 282.68 46.1853L279.121 48.3853L279.103 46.0543C279.088 44.0103 278.471 44.3833 274.103 49.0783C271.363 52.0233 269.121 54.7233 269.12 55.0783C269.119 55.4323 266.757 57.0263 263.87 58.6203C262.287 63.8181 260.7 74.0323 259.5 74.8323C258.368 75.5868 257.645 98.2852 257.5 111.5C256.492 114.804 255.759 118.701 255 122C253.268 123.373 252.005 124.242 252.5 126.5C252.619 127.043 252.546 128.004 252.5 129C251.962 132.012 251.993 135.029 251.662 138C250.356 144.442 251.473 153.455 249.5 158C249.5 161.803 243.941 172.261 240 194.5C237.605 208.012 231.774 222.381 228 229C227.026 231.216 224.606 233.682 223.563 237.23C219.633 237.534 214.965 238.356 212.715 239.165C210.24 240.055 205.647 240.957 202.508 241.169C199.37 241.381 195.77 242.223 194.508 243.04C193.247 243.858 190.078 245.059 187.465 245.711C184.852 246.362 182.715 247.291 182.715 247.776C182.715 248.26 181.703 248.66 180.465 248.663C179.227 248.667 177.078 249.263 175.688 249.988C174.297 250.714 171.131 251.818 168.651 252.443C166.171 253.067 161.683 254.666 158.678 255.995C155.674 257.323 152.765 258.498 152.215 258.605C151.665 258.712 150.54 259.407 149.715 260.15C148.89 260.893 146.877 261.835 145.242 262.243C143.607 262.652 139.782 264.485 136.742 266.319C133.702 268.152 130.64 269.653 129.936 269.654C127.582 269.659 116.285 275.842 109.527 280.824C101.691 286.6 96.482 293.726 96.92 298.07C97.082 299.683 97.84 301.209 98.604 301.46C99.446 301.737 99.718 301.472 99.295 300.787C98.911 300.165 99.036 299.657 99.573 299.657C100.109 299.657 100.714 300.155 100.917 300.763C101.186 301.57 102.358 301.572 105.25 300.769C107.431 300.163 112.042 299.666 115.497 299.663C121.077 299.658 124.814 298.652 129.715 295.835C133.491 293.665 154.58 283.657 155.377 283.657C155.868 283.657 158.958 282.255 162.243 280.542C165.527 278.829 170.299 276.803 172.845 276.039C175.392 275.276 178.03 273.982 178.708 273.165C179.387 272.348 180.294 271.897 180.724 272.163C181.155 272.429 182.791 271.977 184.361 271.158C185.931 270.339 187.976 269.667 188.906 269.663C189.836 269.66 190.875 269.207 191.215 268.657C191.555 268.107 193.944 267.652 196.524 267.645C199.576 267.637 202.627 266.825 205.256 265.321C208.079 263.707 210.382 263.136 212.893 263.43C214.622 263.631 215.6 263.627 216.396 263.135C216.304 263.343 216.214 263.539 216.126 263.722C214.043 268.057 212.301 273.549 211.027 279.713C209.314 280.156 208.009 280.694 207.081 281.335C205.505 282.423 201.662 283.865 198.542 284.54C195.422 285.214 192.321 286.427 191.651 287.234C190.958 288.069 189.631 288.448 188.574 288.112C187.551 287.788 186.715 288.003 186.715 288.59C186.715 289.177 185.799 289.657 184.68 289.657C183.56 289.657 181.648 290.267 180.43 291.012C179.212 291.758 175.581 292.926 172.361 293.607C169.142 294.289 165.092 295.648 163.361 296.626C161.631 297.605 157.749 299.25 154.734 300.281C151.72 301.313 148.458 302.945 147.484 303.907C146.511 304.869 145.152 305.714 144.465 305.785C143.778 305.855 142.193 306.019 140.943 306.149C139.694 306.279 137.859 307.122 136.865 308.021C135.871 308.921 134.693 309.657 134.247 309.657C133.801 309.657 131.197 311.035 128.459 312.719C125.722 314.404 122.856 315.541 122.091 315.248C120.159 314.506 107.515 320.431 97.986 326.544C82.993 336.162 75.397 346.573 78.83 352.802C79.934 354.805 80.182 354.896 80.495 353.407C80.95 351.235 81.568 351.214 83.868 353.295C85.343 354.63 85.958 354.7 87.196 353.673C88.32 352.74 88.715 352.72 88.715 353.594C88.715 354.285 89.233 354.454 89.965 354C90.653 353.574 95.583 353.345 100.921 353.492C111 353.768 117.605 352.625 120.049 350.18C120.833 349.397 122.765 348.434 124.344 348.04C127.94 347.144 148.971 337.823 149.686 336.809C149.977 336.397 152.077 335.516 154.352 334.852C158.898 333.525 164.984 330.804 171.335 327.26C173.601 325.996 177.186 324.68 179.302 324.337C181.418 323.993 184.377 322.805 185.877 321.695C187.378 320.586 189.233 319.919 190 320.213C190.767 320.507 191.972 320.053 192.677 319.203C193.383 318.352 194.831 317.657 195.896 317.657C196.962 317.657 197.581 317.249 197.273 316.75C196.964 316.252 197.567 316.067 198.611 316.34C199.656 316.613 201.395 316.364 202.475 315.785C203.775 315.09 206.075 314.419 208.342 313.988C208.325 314.451 208.324 314.877 208.34 315.255C208.518 319.347 208.071 320.701 205.475 323.931C202.906 327.128 202.624 327.968 203.76 329.03C205.356 330.52 205.548 332.222 204.121 332.222C203.571 332.222 203.121 333.032 203.121 334.022C203.121 335.012 202.664 336.279 202.106 336.837C201.418 337.525 201.635 338.945 202.775 341.231C203.803 343.291 204.061 344.742 203.436 344.95C202.506 345.26 202.633 348.656 203.703 352.056C203.999 352.998 205.561 352.336 209.006 349.806C211.692 347.835 214.423 346.222 215.076 346.222C216.768 346.222 219.121 343.646 219.121 341.793C219.121 340.929 219.571 340.222 220.121 340.222C220.671 340.222 221.121 339.732 221.121 339.133C221.121 338.534 223.111 336.109 225.544 333.745C228.297 331.069 230.09 328.375 230.294 326.608C230.497 324.848 231.5 323.332 232.934 322.622C234.206 321.991 235.219 321.08 235.184 320.598C235.149 320.116 235.684 319.722 236.371 319.722C237.998 319.722 240.04 316.318 240.086 313.531C240.105 312.326 240.578 311.057 241.137 310.712C241.696 310.366 241.896 309.668 241.582 309.159C241.268 308.65 242.16 306.726 243.566 304.883C246.189 301.445 246.666 300.093 245.009 299.281C245.494 299.074 246.527 299.069 247.715 299.307C250.064 299.777 250.715 299.554 250.715 298.282C250.715 297.237 251.565 296.657 253.098 296.657C254.573 296.657 255.665 295.954 255.964 294.814C256.534 292.632 260.41 292.575 261.795 294.727C262.587 295.958 262.852 295.949 263.7 294.657C264.358 293.654 264.689 293.571 264.7 294.407C264.719 295.987 267.195 296.013 270.031 294.463C271.232 293.807 273.454 293.391 274.967 293.539C276.693 293.708 277.936 293.244 278.3 292.296C278.629 291.438 279.538 291.036 280.399 291.366C281.234 291.686 282.315 291.32 282.801 290.553C283.54 289.384 283.689 289.401 283.715 290.657C283.742 291.99 283.852 291.99 284.699 290.657C286.151 288.374 289.951 288.864 292.464 291.657C294.057 293.428 294.713 293.712 294.714 292.63C294.714 291.789 295.448 290.056 296.343 288.778C297.622 286.951 298.158 286.743 298.843 287.805C299.432 288.719 299.958 288.813 300.465 288.096C301.333 286.868 316.715 286.637 316.715 287.852C316.715 289.252 319.753 288.721 320.329 287.22C320.632 286.43 321.518 286.028 322.298 286.327C323.145 286.652 323.715 286.248 323.715 285.323C323.715 284.472 324.225 283.46 324.849 283.074C325.637 282.587 325.841 283.348 325.516 285.559C324.902 289.745 326.163 290.405 327.698 286.699L328.912 283.767L331.314 286.358C333.16 288.35 333.715 288.569 333.715 287.303C333.715 285.437 334.898 285.275 339.306 286.54C341.143 287.067 343.055 287.046 344.049 286.49C345.259 285.813 345.715 285.946 345.715 286.976C345.715 287.98 346.641 288.287 348.882 288.026C350.623 287.823 352.243 287.462 352.482 287.224C353.373 286.333 351.528 284.657 349.656 284.657C347.753 284.657 347.26 283.651 347.697 280.661C347.864 279.515 347.366 279.63 345.565 281.151C344.273 282.242 343.55 282.731 343.959 282.236C344.999 280.977 340.772 278.228 337.735 278.189C336.349 278.172 334.343 277.369 333.276 276.407C332.104 275.349 329.535 274.597 326.776 274.505C320.99 274.311 320.43 274.236 319.215 273.49C318.665 273.152 316.424 273.022 314.234 273.202C311.947 273.389 309.893 273.023 309.408 272.342C308.844 271.551 308.415 271.508 308.12 272.214C307.621 273.405 296.528 272.442 290.722 270.703C290.519 270.642 290.325 270.584 290.142 270.529C287.758 269.813 287.028 269.594 286.807 269.837C286.709 269.945 286.711 270.143 286.714 270.428C286.714 270.478 286.715 270.531 286.715 270.587C286.715 271.099 284.578 271.491 281.965 271.458C279.352 271.426 273.84 271.706 269.715 272.082C265.59 272.457 260.977 272.852 259.465 272.959C257.953 273.065 256.715 273.481 256.715 273.883C256.715 274.285 255.624 274.117 254.29 273.509C253.715 273.247 252.763 273.094 251.546 273.035C253.393 270.953 255.121 268.136 255.121 266.544C255.121 265.321 255.692 263.962 256.389 263.522C257.086 263.082 258.162 260.922 258.779 258.722C259.825 254.997 261.109 251.303 262.46 248.028C263.899 246.88 266.55 246.578 273.715 246.23L274.108 246.211C280.656 245.894 282.223 245.819 282.598 245.111C282.716 244.888 282.716 244.603 282.715 244.228L282.715 244.157C282.715 241.404 284.714 242.615 284.778 245.407C284.839 248.036 284.881 248.059 285.74 245.924C286.656 243.645 289.7 243.714 289.73 246.014C289.742 246.86 289.936 246.857 290.481 246.001C291.299 244.716 298.679 243.899 300.319 244.912C301.657 245.739 305.715 244.707 305.715 243.54C305.715 243.055 304.863 242.657 303.822 242.657C302.781 242.657 301.645 241.918 301.298 241.014C300.952 240.11 300.394 239.644 300.06 239.979C299.726 240.313 298.582 239.977 297.519 239.232C296.456 238.487 294.712 238.106 293.645 238.386C292.578 238.665 291.144 238.431 290.46 237.866C289.775 237.301 287.19 236.72 284.715 236.574C282.24 236.429 279.872 236.133 279.452 235.916C279.041 235.705 274.299 235.409 268.826 235.251C269.785 230.396 270.096 221.222 268.931 221.222C267.062 221.222 268.308 219.335 270.371 219.042C272.276 218.771 272.621 218.109 272.621 214.722C272.621 212.438 272.73 211.429 273.429 210.926C286.385 220.911 302.203 223.159 319.274 217.32C330.625 213.438 332.589 212.075 345.243 199.3C358.843 185.569 366.334 174.972 374.281 158.216C383.512 138.752 386.115 126.191 386 101.657C385.921 84.836 384.28 74.263 380.257 64.657C374.677 51.334 373.154 48.132 372.215 47.752C371.665 47.528 368.715 44.824 365.659 41.741C362.603 38.658 358.103 35.307 355.659 34.294C353.215 33.281 350.346 31.993 349.283 31.432C346.769 30.106 332.126 29.499 328.048 30.553ZM305.706 52.9852C305.669 52.9286 305.64 52.863 305.62 52.79L306.215 52.798L305.706 52.9852ZM285.014 159.631C284.316 160.519 283.881 161.332 283.703 162.019C283.791 162.341 283.877 162.668 283.961 162.998C284.037 163.297 284.113 163.591 284.189 163.878C284.512 164.101 284.969 164.222 285.558 164.222C286.283 164.222 287.436 164.897 288.121 165.722C288.895 166.654 288.967 167.222 288.311 167.222C287.731 167.222 286.973 168.112 286.628 169.2C286.507 169.583 286.336 169.905 286.118 170.166C287.604 174.14 289.319 176.746 292.131 179.77C295.856 183.776 300.43 185.806 303.766 184.933C307.062 184.072 327.715 169.36 327.715 167.874C327.715 167.62 326.933 168.03 325.977 168.785C324.363 170.058 324.345 170.006 325.727 168.051C326.545 166.893 328.879 163.743 330.912 161.051C344.717 142.774 353.294 114.73 350.49 97.039C347.599 78.804 343.015 65.959 338.545 63.566C337.537 63.026 336.099 61.118 335.35 59.325C334.601 57.533 332.793 55.283 331.333 54.327C328.804 52.669 328.649 52.672 328.038 54.372C327.685 55.354 325.106 58.703 322.306 61.814C319.506 64.925 316.144 68.892 314.835 70.629C312.858 73.2529 309.666 78.3837 307.054 82.9226C306.563 88.2234 306.3 88.4378 305.807 88.8406C305.011 89.4918 303.612 90.6352 299.671 114.553C296.401 119.372 295.121 123.822 295.121 130.371C295.121 134.905 294.783 136.222 293.621 136.222C292.573 136.222 292.121 137.278 292.121 139.722C292.121 141.647 291.758 143.222 291.313 143.222C290.869 143.222 289.672 145.135 288.652 147.472C287.633 149.809 286.309 152.046 285.71 152.441C284.934 152.954 284.969 153.722 285.829 155.11C286.83 156.726 286.69 157.5 285.014 159.631Z" fill="#FE1C1E"/>
<path fill-rule="evenodd" clip-rule="evenodd" d="M185.868 49.9667C179.493 52.3487 157.589 67.2597 155.5 70.6407C155.119 71.2577 156.917 71.6587 160.191 71.6877L165.5 71.7347L161 73.4977C148.721 78.3077 137.341 86.8017 132.14 95.0357C122.541 110.236 115.584 127.354 111.853 144.953C109.014 158.345 108.717 183.645 111.28 193.882C116.617 215.204 128.452 230.356 144.775 236.763C153.149 240.05 167.848 240.046 177.5 236.753C190.677 232.259 192.24 231.194 205.584 217.641C222.997 199.955 233.506 178.91 240 156.606C244.673 140.556 247.068 110.511 242.975 93.6407C240.595 83.8297 233.582 67.9127 230.564 65.4717C229.429 64.5537 226.223 61.6287 223.44 58.9717C216.818 52.6487 208.384 49.3877 197.5 48.9397C192.436 48.7307 188.167 49.1087 185.868 49.9667ZM188 72.6837C188 73.2567 186.056 75.8447 183.68 78.4337C181.303 81.0227 178.295 84.7157 176.993 86.6407C175.692 88.5657 173.408 91.5657 171.918 93.3067C170.427 95.0487 167.343 100.2 165.064 104.753C162.785 109.307 160.469 113.576 159.918 114.24C159.239 115.057 159.28 115.568 160.043 115.822C160.709 116.044 160.199 117.209 158.795 118.669C151.451 126.311 144.924 144.556 143.048 162.682C142.473 168.247 141.569 172.298 140.794 172.79C140.048 173.263 139.962 173.617 140.591 173.626C141.191 173.634 142.259 176.223 142.966 179.378C145.186 189.301 148.086 195.605 151.696 198.358C153.543 199.767 154.813 201.161 154.518 201.456C153.593 202.381 160.976 204.46 163.159 203.889C165.518 203.272 173.547 198.032 179.5 193.224C181.7 191.448 184.288 189.704 185.25 189.349C186.212 188.994 187 188.185 187 187.55C187 186.755 186.499 186.812 185.387 187.735C184.5 188.471 186.204 185.843 189.174 181.895C202.218 164.556 209.835 144.449 210.485 125.641C210.648 120.907 208.345 103.679 207.117 100.449C206.573 99.0177 206.356 97.6177 206.635 97.3387C207.521 96.4537 200.884 84.6947 198.392 82.7347C197.077 81.6997 196 80.3707 196 79.7817C196 78.4167 190.088 71.6407 188.896 71.6407C188.403 71.6407 188 72.1097 188 72.6837Z" fill="#FE1C1E"/>
</svg>
